<?xml version="1.0" encoding="UTF-8" standalone="no"?>
<!-- Created with Inkscape (http://www.inkscape.org/) -->

<svg
   xmlns:dc="http://purl.org/dc/elements/1.1/"
   xmlns:cc="http://creativecommons.org/ns#"
   xmlns:rdf="http://www.w3.org/1999/02/22-rdf-syntax-ns#"
   xmlns:svg="http://www.w3.org/2000/svg"
   xmlns="http://www.w3.org/2000/svg"
   xmlns:sodipodi="http://sodipodi.sourceforge.net/DTD/sodipodi-0.dtd"
   xmlns:inkscape="http://www.inkscape.org/namespaces/inkscape"
   width="35cm"
   height="15cm"
   viewBox="0 0 350 150"
   version="1.1"
   id="svg145"
   inkscape:version="0.92.5 (2060ec1f9f, 2020-04-08)"
   sodipodi:docname="juniorityText.svg">
  <defs
     id="defs139" />
  <sodipodi:namedview
     id="base"
     pagecolor="#ffffff"
     bordercolor="#666666"
     borderopacity="1.0"
     inkscape:pageopacity="0.0"
     inkscape:pageshadow="2"
     inkscape:zoom="0.35"
     inkscape:cx="400"
     inkscape:cy="560"
     inkscape:document-units="mm"
     inkscape:current-layer="layer1"
     showgrid="false"
     units="cm"
     inkscape:window-width="1400"
     inkscape:window-height="1013"
     inkscape:window-x="0"
     inkscape:window-y="0"
     inkscape:window-maximized="1" />
  <metadata
     id="metadata142">
    <rdf:RDF>
      <cc:Work
         rdf:about="">
        <dc:format>image/svg+xml</dc:format>
        <dc:type
           rdf:resource="http://purl.org/dc/dcmitype/StillImage" />
        <dc:title></dc:title>
      </cc:Work>
    </rdf:RDF>
  </metadata>
  <g
     inkscape:label="Capa 1"
     inkscape:groupmode="layer"
     id="layer1"
     transform="translate(0,-147.00002)">
    <path
       inkscape:connector-curvature="0"
       id="path95"
       style="fill:#000000;stroke-width:0.26458332"
       d="m 264.92538,185.21967 c -0.2564,0 -10.08393,1.59089 -10.6686,1.72703 l -0.60771,0.14159 0.0879,20.03392 c 0.0972,22.05696 0.0381,21.22974 1.78335,24.79642 1.04294,2.13141 2.07628,3.32112 4.00338,4.60799 1.98808,1.32759 4.43298,2.1161 7.37887,2.3797 2.59339,0.23206 5.78763,0.12167 8.0698,-0.27854 2.33892,-0.41016 5.68887,-1.52474 5.68596,-1.89187 -0.004,-0.5531 -1.49402,-8.38661 -1.61851,-8.51111 -0.0653,-0.0653 -1.00704,0.11405 -2.09289,0.39843 -1.22964,0.32201 -2.97259,0.53263 -4.6204,0.55862 -4.09636,0.0646 -5.69104,-0.85263 -6.64765,-3.82406 -0.36454,-1.13231 -0.46435,-2.89045 -0.56276,-9.90947 l -0.11937,-8.53282 h 7.03833 7.03835 v -4.89479 -4.89479 h -7.01148 -7.01146 v -5.95312 c 0,-3.27422 -0.0561,-5.95313 -0.12506,-5.95313 z m -50.23156,11.16987 c -3.80901,0.0216 -8.09416,0.7092 -13.0638,2.08566 l -2.99,0.82785 v 19.4169 19.41639 h 5.81877 5.81877 l 0.0682,-15.66933 0.0682,-15.66881 1.19063,-0.22686 c 2.13743,-0.40727 6.33202,-0.26884 8.99376,0.29714 1.49498,0.31789 2.5726,0.43354 2.66392,0.28577 0.37835,-0.61217 1.90306,-9.00893 1.6769,-9.23509 -0.33222,-0.33222 -3.37544,-0.9467 -6.58771,-1.33015 -1.17156,-0.13986 -2.38798,-0.20668 -3.65766,-0.19947 z m -105.35067,0.0894 c -4.79725,0.0125 -6.11646,0.11172 -9.657292,0.72657 -2.255573,0.39166 -4.696355,0.86945 -5.423959,1.06143 l -1.322916,0.34881 -0.0677,19.76055 -0.0677,19.76004 h 5.822364 5.822383 v -15.72721 c 0,-10.77282 0.0885,-15.78131 0.28009,-15.8998 0.15394,-0.0951 1.85245,-0.19135 3.77444,-0.21394 3.27119,-0.0384 3.5788,0.002 4.81265,0.63562 1.07122,0.55004 1.4532,0.94646 2.0407,2.11667 0.39758,0.79193 0.84375,2.21361 0.99115,3.15949 0.15178,0.97384 0.2687,6.97016 0.26975,13.82448 l 0.002,12.10469 h 5.82083 5.82084 v -12.37599 c 0,-6.90974 -0.12099,-13.36649 -0.27389,-14.61823 -0.82059,-6.71806 -3.06689,-10.52378 -7.49205,-12.69225 -3.62492,-1.77632 -4.81799,-1.98739 -11.15179,-1.97093 z m -84.786557,0.63665 -0.07235,20.97339 c -0.07214,20.92355 -0.07363,20.97671 -0.649573,22.22345 -0.849496,1.83891 -1.799336,2.31947 -4.5837,2.32079 -1.237888,5.3e-4 -2.658706,-0.11586 -3.15743,-0.2589 -0.498724,-0.14303 -0.945322,-0.22153 -0.992704,-0.17415 -0.04738,0.0474 -0.423079,2.13946 -0.834574,4.64881 l -0.748272,4.56252 0.655257,0.24908 c 0.360406,0.13703 1.263954,0.35103 2.007629,0.47542 0.743676,0.12439 2.791275,0.23982 4.550627,0.25683 7.721589,0.0747 12.293895,-2.72205 14.384652,-8.79894 0.995274,-2.89282 1.098727,-5.58064 1.016475,-26.35964 l -0.07906,-19.97603 -5.748486,-0.0713 z m 57.402181,0 -5.754687,0.0713 -5.754688,0.0713 -0.06821,15.77475 -0.06822,15.77474 -0.990118,0.1633 c -1.57262,0.25995 -5.65811,0.19268 -6.752045,-0.1111 -2.37721,-0.66016 -3.674084,-2.86483 -4.1553,-7.06469 -0.145682,-1.27147 -0.26533,-7.34239 -0.266652,-13.49065 l -0.0026,-11.17864 H 52.457712 46.76917 l 0.0036,13.4276 c 0.0031,12.11677 0.05208,13.66007 0.501261,15.80885 1.010566,4.83432 2.479932,7.36881 5.557801,9.58702 2.332924,1.68132 5.188804,2.65808 8.61601,2.94659 4.778135,0.40222 12.579107,-0.27817 18.19579,-1.58699 l 2.315105,-0.5395 V 216.9428 Z m 56.885416,0.0103 v 20.50521 20.50521 h 5.68854 5.68854 v -20.50521 -20.50521 h -5.68854 z m 92.60417,0 v 20.50521 20.50521 h 5.82083 5.82083 v -20.50521 -20.50521 h -5.82083 z m 82.30041,0 -0.38653,1.38906 c -3.44429,12.37382 -4.66431,16.58001 -6.02187,20.75946 l -1.61488,4.97127 -0.52038,-1.19063 c -0.88969,-2.03662 -6.21096,-18.19503 -7.27554,-22.0927 l -1.01182,-3.70417 -6.16344,-0.0708 c -5.79184,-0.0668 -6.15421,-0.0428 -6.01565,0.39688 0.0811,0.25737 0.79624,2.55201 1.58956,5.09943 2.95963,9.5034 6.43901,18.3616 11.06755,28.17657 1.30387,2.76489 2.42438,5.26521 2.48976,5.55625 0.0694,0.30898 -0.27969,1.18971 -0.83923,2.11667 -1.99245,3.30105 -3.33412,4.10104 -6.87658,4.10104 -1.29082,0 -3.10642,-0.19038 -4.03489,-0.42323 -0.92851,-0.23286 -1.73271,-0.37878 -1.78697,-0.32453 -0.12555,0.12555 -1.98282,8.3993 -1.98282,8.83305 0,0.28415 2.85634,1.19555 4.7625,1.51981 1.74403,0.29668 7.12775,0.1603 8.60981,-0.21808 4.70588,-1.20141 7.69953,-3.92297 10.95592,-9.96011 2.51529,-4.66314 7.70591,-17.17288 11.13266,-26.82989 1.54644,-4.35807 5.81411,-17.55525 5.81411,-17.97926 0,-0.0693 -2.6752,-0.12609 -5.94537,-0.12609 z" />
    <rect
       style="fill:#000000;fill-opacity:1;stroke-width:0.6764192"
       id="rect118"
       width="11.44447"
       height="13.520466"
       x="138.84419"
       y="178.31378" />
    <rect
       style="fill:#000000;fill-opacity:1;stroke-width:0.6764192"
       id="rect118-3"
       width="11.44447"
       height="13.520466"
       x="24.544189"
       y="178.31378" />
    <rect
       style="fill:#000000;fill-opacity:1;stroke-width:0.6764192"
       id="rect118-6"
       width="11.44447"
       height="13.520466"
       x="231.44836"
       y="178.31378" />
    <g
       id="g3808"
       transform="matrix(3.116367,-0.21046937,0.03985171,3.1638608,-155.59508,-203.45348)">
      <path
         sodipodi:nodetypes="csssscccssccccccccsssscc"
         inkscape:connector-curvature="0"
         id="path3775"
         d="m 99.910856,145.63583 c -1.12599,-0.84631 -2.002023,-2.41796 -2.32292,-4.16744 -0.145426,-0.79284 -0.167312,-1.72209 -0.05823,-2.47257 0.261456,-1.79885 1.160769,-3.24324 2.633714,-4.23002 0.71404,-0.47836 1.69505,-0.8829 2.655,-1.09484 l 0.24876,-0.0549 -0.012,-0.29941 c -0.0229,-0.57347 -0.0367,-1.18793 -0.0265,-1.17834 0.0367,0.0344 2.79583,3.27393 2.79583,3.28271 0,0.006 -0.62033,0.63122 -1.3785,1.38934 l -1.37851,1.37841 -0.0142,-0.6927 c -0.008,-0.38099 -0.0181,-0.69668 -0.0228,-0.70154 -0.0147,-0.0152 -0.41426,0.19138 -0.58647,0.30317 -0.76878,0.49903 -1.36064,1.25853 -1.61322,2.07017 -0.34071,1.08419 -0.008,2.41008 0.41231,3.2226 l 0.0598,0.10108 -0.10072,0.0282 c -0.15554,0.0436 -1.977976,0.51334 -1.991483,0.51334 -0.0066,0 -0.01196,0.0111 -0.01196,0.0246 0,0.0135 0.191239,0.61391 0.424974,1.33419 0.233736,0.72028 0.424969,1.31335 0.424969,1.31794 0,0.0216 -0.0377,0.001 -0.137928,-0.074 z"
         style="fill:#36b4e5;fill-opacity:1;stroke-width:0.01931699" />
      <path
         inkscape:connector-curvature="0"
         id="path3781"
         d="m 100.86307,145.71173 c -0.354,-1.18283 -0.64509,-2.16652 -0.64686,-2.186 -0.003,-0.0313 0.20478,-0.0867 1.78288,-0.47563 0.98236,-0.24212 1.7882,-0.43812 1.79076,-0.43556 0.003,0.003 -0.0999,0.29416 -0.2277,0.64799 -0.12781,0.35384 -0.22884,0.64687 -0.22452,0.65119 0.004,0.004 0.12293,0.0175 0.26358,0.0292 0.88675,0.0742 1.86556,-0.23825 2.607,-0.83226 0.20454,-0.16387 0.54316,-0.50474 0.68161,-0.68613 0.34713,-0.45481 0.60615,-1.01214 0.71095,-1.52975 0.23158,-1.14367 -0.12727,-2.25786 -1.01307,-3.14552 -0.25752,-0.25805 -0.45685,-0.41969 -0.80378,-0.65177 l -0.2628,-0.1758 0.66845,-0.72295 c 0.36765,-0.39763 0.67124,-0.73033 0.67464,-0.73934 0.003,-0.009 -0.38248,-0.43931 -0.8575,-0.95621 -0.47502,-0.51691 -0.84723,-0.93476 -0.82715,-0.92857 0.0201,0.006 0.14113,0.0415 0.26899,0.0785 1.07505,0.3109 2.04292,0.79949 2.83893,1.43312 0.27302,0.21732 0.80491,0.74922 1.01978,1.01979 0.73703,0.9281 1.19889,2.03119 1.35788,3.2431 0.0425,0.32368 0.0577,1.10244 0.0283,1.44801 -0.14365,1.68972 -0.8612,3.25742 -2.01818,4.4093 -1.07501,1.07029 -2.40968,1.68433 -3.97109,1.827 -0.31352,0.0286 -1.24593,0.0112 -1.54316,-0.0289 -0.39872,-0.0537 -0.88783,-0.14624 -1.14346,-0.21623 -0.0238,-0.007 -0.0814,0.111 -0.26078,0.53243 -0.12663,0.29744 -0.2347,0.54096 -0.24016,0.54114 -0.005,2e-4 -0.29955,-0.96742 -0.65355,-2.15024 z"
         style="fill:#62b9af;fill-opacity:1;stroke-width:0.01931699" />
    </g>
    <rect
       style="fill:#36b4e5;fill-opacity:1;stroke-width:0.6764192"
       id="rect118-6-3"
       width="11.44447"
       height="13.520466"
       x="330.33514"
       y="224.61588" />
  </g>
</svg>
