<?xml version="1.0" encoding="UTF-8" standalone="no"?>
<!-- Created with Inkscape (http://www.inkscape.org/) -->

<svg
   xmlns:dc="http://purl.org/dc/elements/1.1/"
   xmlns:cc="http://creativecommons.org/ns#"
   xmlns:rdf="http://www.w3.org/1999/02/22-rdf-syntax-ns#"
   xmlns:svg="http://www.w3.org/2000/svg"
   xmlns="http://www.w3.org/2000/svg"
   xmlns:sodipodi="http://sodipodi.sourceforge.net/DTD/sodipodi-0.dtd"
   xmlns:inkscape="http://www.inkscape.org/namespaces/inkscape"
   width="210mm"
   height="297mm"
   viewBox="0 0 210 297"
   version="1.1"
   id="svg8"
   inkscape:version="0.92.5 (2060ec1f9f, 2020-04-08)"
   sodipodi:docname="juniority.svg">
  <defs
     id="defs2" />
  <sodipodi:namedview
     id="base"
     pagecolor="#ffffff"
     bordercolor="#666666"
     borderopacity="1.0"
     inkscape:pageopacity="0.0"
     inkscape:pageshadow="2"
     inkscape:zoom="0.47096633"
     inkscape:cx="698.0556"
     inkscape:cy="583.58346"
     inkscape:document-units="mm"
     inkscape:current-layer="layer1"
     showgrid="false"
     inkscape:snap-nodes="false"
     inkscape:window-width="1400"
     inkscape:window-height="1013"
     inkscape:window-x="0"
     inkscape:window-y="0"
     inkscape:window-maximized="1" />
  <metadata
     id="metadata5">
    <rdf:RDF>
      <cc:Work
         rdf:about="">
        <dc:format>image/svg+xml</dc:format>
        <dc:type
           rdf:resource="http://purl.org/dc/dcmitype/StillImage" />
        <dc:title></dc:title>
      </cc:Work>
    </rdf:RDF>
  </metadata>
  <g
     inkscape:label="Capa 1"
     inkscape:groupmode="layer"
     id="layer1">
    <g
       id="g3808"
       transform="matrix(11.318262,-0.67261763,0.1447365,10.111061,-1092.7837,-1211.5788)">
      <path
         sodipodi:nodetypes="csssscccssccccccccsssscc"
         inkscape:connector-curvature="0"
         id="path3775"
         d="m 99.910856,145.63583 c -1.12599,-0.84631 -2.002023,-2.41796 -2.32292,-4.16744 -0.145426,-0.79284 -0.167312,-1.72209 -0.05823,-2.47257 0.261456,-1.79885 1.160769,-3.24324 2.633714,-4.23002 0.71404,-0.47836 1.69505,-0.8829 2.655,-1.09484 l 0.24876,-0.0549 -0.012,-0.29941 c -0.0229,-0.57347 -0.0367,-1.18793 -0.0265,-1.17834 0.0367,0.0344 2.79583,3.27393 2.79583,3.28271 0,0.006 -0.62033,0.63122 -1.3785,1.38934 l -1.37851,1.37841 -0.0142,-0.6927 c -0.008,-0.38099 -0.0181,-0.69668 -0.0228,-0.70154 -0.0147,-0.0152 -0.41426,0.19138 -0.58647,0.30317 -0.76878,0.49903 -1.36064,1.25853 -1.61322,2.07017 -0.34071,1.08419 -0.008,2.41008 0.41231,3.2226 l 0.0598,0.10108 -0.10072,0.0282 c -0.15554,0.0436 -1.977976,0.51334 -1.991483,0.51334 -0.0066,0 -0.01196,0.0111 -0.01196,0.0246 0,0.0135 0.191239,0.61391 0.424974,1.33419 0.233736,0.72028 0.424969,1.31335 0.424969,1.31794 0,0.0216 -0.0377,0.001 -0.137928,-0.074 z"
         style="fill:#36b4e5;fill-opacity:1;stroke-width:0.01931699" />
      <path
         inkscape:connector-curvature="0"
         id="path3781"
         d="m 100.86307,145.71173 c -0.354,-1.18283 -0.64509,-2.16652 -0.64686,-2.186 -0.003,-0.0313 0.20478,-0.0867 1.78288,-0.47563 0.98236,-0.24212 1.7882,-0.43812 1.79076,-0.43556 0.003,0.003 -0.0999,0.29416 -0.2277,0.64799 -0.12781,0.35384 -0.22884,0.64687 -0.22452,0.65119 0.004,0.004 0.12293,0.0175 0.26358,0.0292 0.88675,0.0742 1.86556,-0.23825 2.607,-0.83226 0.20454,-0.16387 0.54316,-0.50474 0.68161,-0.68613 0.34713,-0.45481 0.60615,-1.01214 0.71095,-1.52975 0.23158,-1.14367 -0.12727,-2.25786 -1.01307,-3.14552 -0.25752,-0.25805 -0.45685,-0.41969 -0.80378,-0.65177 l -0.2628,-0.1758 0.66845,-0.72295 c 0.36765,-0.39763 0.67124,-0.73033 0.67464,-0.73934 0.003,-0.009 -0.38248,-0.43931 -0.8575,-0.95621 -0.47502,-0.51691 -0.84723,-0.93476 -0.82715,-0.92857 0.0201,0.006 0.14113,0.0415 0.26899,0.0785 1.07505,0.3109 2.04292,0.79949 2.83893,1.43312 0.27302,0.21732 0.80491,0.74922 1.01978,1.01979 0.73703,0.9281 1.19889,2.03119 1.35788,3.2431 0.0425,0.32368 0.0577,1.10244 0.0283,1.44801 -0.14365,1.68972 -0.8612,3.25742 -2.01818,4.4093 -1.07501,1.07029 -2.40968,1.68433 -3.97109,1.827 -0.31352,0.0286 -1.24593,0.0112 -1.54316,-0.0289 -0.39872,-0.0537 -0.88783,-0.14624 -1.14346,-0.21623 -0.0238,-0.007 -0.0814,0.111 -0.26078,0.53243 -0.12663,0.29744 -0.2347,0.54096 -0.24016,0.54114 -0.005,2e-4 -0.29955,-0.96742 -0.65355,-2.15024 z"
         style="fill:#62b9af;fill-opacity:1;stroke-width:0.01931699" />
    </g>
  </g>
</svg>
